<svg xmlns="http://www.w3.org/2000/svg" width="11" height="15" viewBox="0 0 11 15">
  <path fill="#FFFFFF" fill-rule="evenodd" d="M5.96734315,16.0190316 C6.00646067,15.9728319 6.0777023,15.8873806 6.17650407,15.7667932 C6.33998996,15.5672591 6.52185563,15.3408775 6.71754747,15.091743 C7.276582,14.3800384 7.83566338,13.6271044 8.35862151,12.8650546 C8.75301894,12.2903422 9.11170388,11.7320019 9.42657845,11.1967954 C10.325891,9.66819332 10.8323295,8.40484015 10.8323295,7.41616474 C10.8323295,4.42489955 8.40742993,2 5.41616474,2 C2.42489955,2 0,4.42489955 0,7.41616474 C0,8.40484015 0.506438448,9.66819332 1.40575104,11.1967954 C1.7206256,11.7320019 2.07931055,12.2903422 2.47370798,12.8650546 C2.9966661,13.6271044 3.55574748,14.3800384 4.11478201,15.091743 C4.31047386,15.3408775 4.49233953,15.5672591 4.65582542,15.7667932 C4.75462719,15.8873806 4.82586881,15.9728319 4.86498634,16.0190316 L5.41616474,16.6700001 L5.96734315,16.0190316 L5.96734315,16.0190316 Z M4.86498634,15.0856603 L5.96734315,15.0856603 C5.93311769,15.0452384 5.86684123,14.9657426 5.77311768,14.8513532 C5.61572803,14.6592595 5.44004667,14.440576 5.25068788,14.1995041 C4.70957771,13.5106189 4.1685144,12.7819505 3.6646708,12.0477542 C3.28822253,11.4991971 2.94737527,10.9686235 2.65070501,10.4643597 C1.87427701,9.14463007 1.44442807,8.07233587 1.44442807,7.41616474 C1.44442807,5.22263515 3.22263515,3.44442807 5.41616474,3.44442807 C7.60969434,3.44442807 9.38790141,5.22263515 9.38790141,7.41616474 C9.38790141,8.07233587 8.95805248,9.14463007 8.18162448,10.4643597 C7.88495422,10.9686235 7.54410695,11.4991971 7.16765869,12.0477542 C6.66381509,12.7819505 6.12275178,13.5106189 5.58164161,14.1995041 C5.39228281,14.440576 5.21660145,14.6592595 5.0592118,14.8513532 C4.96548826,14.9657426 4.89921179,15.0452384 4.86498634,15.0856603 L4.86498634,15.0856603 L4.86498634,15.0856603 Z M5.41616474,9.58324739 C6.61276814,9.58324739 7.58280685,8.61320868 7.58280685,7.41660528 C7.58280685,6.22000188 6.61276814,5.24996317 5.41616474,5.24996317 C4.21956135,5.24996317 3.24952263,6.22000188 3.24952263,7.41660528 C3.24952263,8.61320868 4.21956135,9.58324739 5.41616474,9.58324739 L5.41616474,9.58324739 Z" transform="translate(0 -2)"/>
</svg>
