<svg xmlns="http://www.w3.org/2000/svg" width="195" height="53" viewBox="0 0 195 53">
  <defs>
    <linearGradient id="a" x1="50%" x2="50%" y1="-51.85%" y2="206.823%">
      <stop stop-color="#67B26F" offset="0%"/>
      <stop stop-color="#4CA2CD" offset="100%"/>
    </linearGradient>
    <linearGradient id="b" x1="50%" x2="50%" y1="-51.705%" y2="210.184%">
      <stop stop-color="#67B26F" offset="0%"/>
      <stop stop-color="#4CA2CD" offset="100%"/>
    </linearGradient>
    <linearGradient id="c" x1="50%" x2="50%" y1="-208.902%" y2="485.972%">
      <stop stop-color="#67B26F" offset="0%"/>
      <stop stop-color="#4CA2CD" offset="100%"/>
    </linearGradient>
    <linearGradient id="d" x1="50%" x2="50%" y1="-770.611%" y2="1316.626%">
      <stop stop-color="#67B26F" offset="0%"/>
      <stop stop-color="#4CA2CD" offset="100%"/>
    </linearGradient>
    <linearGradient id="e" x1="50%" x2="50%" y1="-12.089%" y2="111.796%">
      <stop stop-color="#67B26F" offset="0%"/>
      <stop stop-color="#4CA2CD" offset="100%"/>
    </linearGradient>
    <linearGradient id="f" x1="50%" x2="50%" y1="-70.73%" y2="160.367%">
      <stop stop-color="#67B26F" offset="0%"/>
      <stop stop-color="#4CA2CD" offset="100%"/>
    </linearGradient>
  </defs>
  <g fill="none" fill-rule="evenodd">
    <g transform="translate(9.03 6.519)">
      <path fill="url(#a)" d="M12.0312997,1.36000249 C10.2895204,0.170509421 8.70042627,-0.196309895 7.47907052,0.483610686 C4.58647128,2.09390134 5.58535964,8.74468471 9.31502987,15.5021294 C13.0447001,22.2595741 18.1313977,26.6347014 21.023997,25.0244107 C23.7377697,23.5136716 23.0384557,17.5820628 19.8261478,11.2142465 C19.6500505,10.8651656 19.2255214,10.7255487 18.8779356,10.9024035 C18.5303498,11.0792583 18.3913309,11.5056133 18.5674282,11.8546942 C21.4557405,17.5802481 22.0734768,22.8199112 20.3399098,23.7849764 C18.4613864,24.8307378 13.922331,20.9266439 10.5491558,14.8150997 C7.17598068,8.7035555 6.28463429,2.76880646 8.16315771,1.72304503 C8.81165781,1.36202936 9.88905877,1.61073174 11.2378613,2.53185376 C11.5600732,2.75189815 11.9988947,2.66795153 12.2179967,2.34435374 C12.4370987,2.02075594 12.3535116,1.58004688 12.0312997,1.36000249 Z"/>
      <path fill="url(#b)" d="M22.7558298,4.98672354 C22.9536686,2.78159877 22.4832717,1.14534673 21.2507565,0.401591471 C18.415877,-1.30910272 13.1802423,2.88507258 9.21802272,9.50767732 C5.25580313,16.1302821 4.02640837,22.7420033 6.86128787,24.4526975 C8.23867888,25.2838774 10.1450027,24.7506286 12.2527188,23.1757291 C12.5653348,22.9421403 12.6302101,22.4982637 12.3976217,22.184303 C12.1650334,21.8703423 11.7230579,21.805188 11.4104418,22.0387768 C9.71240523,23.3075609 8.33964915,23.6915569 7.58802871,23.2379952 C5.74698987,22.1270293 6.84402596,16.2271369 10.4275226,10.2375441 C14.0110192,4.24795135 18.6829769,0.5053279 20.5240157,1.6162938 C21.1820345,2.01337205 21.5050322,3.13690333 21.3504801,4.85955175 C21.315513,5.2492976 21.6017648,5.59371741 21.9898414,5.62883493 C22.377918,5.66395245 22.7208627,5.37646939 22.7558298,4.98672354 Z"/>
      <path fill="url(#c)" d="M25.2776891,16.04661 C27.0357434,15.1423846 28.0606762,13.9832833 28.0840555,12.6381246 C28.1417752,9.31713979 21.9072521,6.86053172 14.2153623,6.72569178 C6.52347249,6.59085184 0.207380102,8.8274458 0.149660368,12.1484306 C0.127221768,13.4394665 1.03438543,14.5929911 2.63341287,15.5368758 C2.96933442,15.7351658 3.40171001,15.6224221 3.5991508,15.2850557 C3.79659158,14.9476892 3.68433075,14.5134538 3.3484092,14.3151638 C2.14216867,13.603136 1.54874978,12.8485607 1.5604884,12.1731627 C1.59797299,10.0164353 7.23406442,8.02063678 14.1907362,8.14258825 C21.147408,8.26453971 26.710712,10.4566653 26.6732274,12.6133926 C26.6609076,13.3222344 25.9784253,14.0940567 24.6344933,14.7852854 C24.2876799,14.963663 24.1505164,15.3906237 24.32813,15.7389289 C24.5057436,16.0872341 24.9308757,16.2249876 25.2776891,16.04661 Z"/>
      <path fill="url(#d)" d="M15.0724384,14.2413319 C15.8221862,13.8239523 16.093073,12.8751942 15.677481,12.1222215 C15.261889,11.3692487 14.3171944,11.0971967 13.5674465,11.5145764 C12.8176987,11.931956 12.5468119,12.880714 12.9624039,13.6336868 C13.3779959,14.3866595 14.3226905,14.6587115 15.0724384,14.2413319 Z"/>
    </g>
    <path fill="url(#e)" d="M14.5118216,51.2233052 L14.5640548,51.2233052 C14.544726,51.2259769 14.531723,51.2249211 14.5118216,51.2233052 Z M24.4452838,51.3164928 C22.9836709,51.3164928 20.807481,51.0362455 18.2786776,50.572851 C17.6960775,50.4660915 17.1190379,50.353879 16.5699956,50.2418307 C17.0500951,49.8746746 17.3271714,49.4651789 17.3271714,48.9442964 C17.3271714,48.703597 17.3244831,48.2993018 17.3185452,47.5962427 C17.3173685,47.4569155 17.3039598,45.9248338 17.2996245,45.4013466 C17.2921137,44.4944216 17.2862736,43.6961041 17.2817603,42.9246725 L17.2766534,42.0517754 L16.4271193,42.2362899 C12.2395371,43.1458113 9.4126012,42.428112 7.62087335,40.712647 C7.19143215,40.3014845 6.85824322,39.862247 6.61034182,39.4257749 C6.52522494,39.2759124 6.45723623,39.138467 6.40501202,39.017529 C6.3762785,38.9509895 6.34219315,38.8573993 6.34219315,38.8573993 C6.00187669,37.9946598 5.61104493,37.226342 5.17868125,36.5474895 C4.59504801,35.6311291 3.96372203,34.9178232 3.32580914,34.3842992 C2.96272891,34.0806339 2.66161833,33.8852722 2.45312567,33.7789693 C2.12406235,33.5521587 1.88150226,33.3550399 1.72188183,33.1921542 C1.92317881,33.1519813 2.14079908,33.1370605 2.29361562,33.13682 C3.4809605,33.224741 4.53049735,33.7586156 5.43880061,34.6057528 C5.79522275,34.9381732 6.10392208,35.2956681 6.36219863,35.6522185 C6.4517597,35.7758574 6.52818386,35.8897764 6.59124093,35.9906682 C8.08257533,38.5409829 10.0344717,39.7647241 12.3086102,39.9671473 C13.9226901,40.1108181 15.528341,39.7364618 16.9714956,39.086405 L17.326697,38.9264074 L17.3813143,38.5393076 C17.6292351,36.7821708 18.3048844,35.4388593 19.1977726,34.6592472 L20.4087724,33.6018808 L18.8142947,33.4204693 C14.6119471,32.9423477 11.4777205,31.9049924 9.13394637,29.9326839 C6.25774837,27.5123356 4.71461925,23.7217866 4.71461925,18.1528654 C4.71461925,14.9502266 5.80368142,12.2067963 7.85407059,9.95938359 L8.1545955,9.62998101 L7.98818379,9.21565227 C7.71210977,8.52828836 7.48800222,7.63087482 7.41329072,6.51539506 C7.30956865,4.96677329 7.52996038,3.30764396 8.16600215,1.56294755 C8.65924729,1.52998523 9.35900799,1.60615367 10.2785873,1.86628161 C11.9015503,2.32538067 13.8542801,3.27249053 16.150424,4.82603171 L16.4202443,5.00858868 L16.7336834,4.92102908 C19.2069648,4.23011485 21.9031249,3.87199418 24.6376783,3.86018959 C27.3566602,3.87196152 30.0561392,4.23227442 32.5398608,4.92501881 L32.8537108,5.01255593 L33.1236149,4.8294234 C35.4142136,3.27523006 37.3635584,2.32794771 38.9849186,1.86904687 C39.9051228,1.60859738 40.6056585,1.5327746 41.0996661,1.56641277 C41.7383699,3.3131571 41.9602819,4.97298789 41.8570841,6.52051602 C41.7827229,7.63561883 41.5571542,8.53597193 41.2822223,9.2132048 L41.1132245,9.62949306 L41.4162544,9.9603761 C43.4670684,12.1996909 44.5528412,14.9419108 44.5528412,18.1528654 C44.5528412,23.7361315 43.0075729,27.5258598 40.1258635,29.9373274 C37.7787304,31.9014517 34.6421516,32.9268649 30.4174433,33.3966011 L28.8012988,33.5762967 L30.0359995,34.6388892 C31.2132128,35.6520076 31.9837305,37.5505899 31.9837305,40.0808453 C31.9837305,41.9464905 31.9760783,43.7325731 31.9620274,45.7299209 C31.9596407,46.069185 31.9571918,46.3988259 31.9540551,46.8079652 C31.9521676,47.0533707 31.9521676,47.0533707 31.9503857,47.2841859 C31.9486673,47.5075168 31.9479989,47.5950478 31.9470967,47.7155038 C31.9423458,48.3498676 31.9402891,48.7058674 31.9402891,48.9482726 C31.9402891,49.1633865 31.9972442,49.3693081 32.0975794,49.5659578 C32.2240322,49.8137961 32.4146462,50.043109 32.6629239,50.2696136 C29.9851121,50.9643352 27.2391763,51.3164928 24.4452838,51.3164928 Z M34.581591,51.1796626 C34.8952837,50.9215774 34.8952837,50.9215774 34.9497528,50.4950909 C34.8863305,50.2328329 34.8863305,50.2328329 34.8182186,50.1379452 C34.6889055,49.9956894 34.6529319,49.96836 34.6009554,49.9324299 C34.5602731,49.9043072 34.5913337,49.924451 34.4058164,49.804828 C34.1861461,49.6631829 34.0317204,49.5579491 33.8733825,49.4370004 C33.6016112,49.229404 33.4149336,49.040397 33.3533554,48.9197082 C33.351332,48.710724 33.3533768,48.3567926 33.3580998,47.7261623 C33.359001,47.6058323 33.3596686,47.518402 33.3613864,47.295155 C33.3631681,47.0643633 33.3631681,47.0643633 33.3650562,46.818876 C33.368195,46.4094619 33.3706461,46.079541 33.3730351,45.7399326 C33.3871077,43.73951 33.3947735,41.9502568 33.3947735,40.0808453 C33.3947735,37.8408871 32.8478208,35.9693953 31.913428,34.6326247 C35.7317576,34.0699352 38.6949569,32.9793136 41.0291279,31.0260362 C44.2541006,28.3273195 45.9638841,24.1341221 45.9638841,18.1528654 C45.9638841,14.7374305 44.846212,11.7669983 42.7455563,9.32833734 C42.9993432,8.58686872 43.1938717,7.6814314 43.2649732,6.6152113 C43.3893186,4.7505588 43.0956299,2.75207545 42.2672443,0.666337734 L42.1438941,0.3557623 L41.8267671,0.253943856 C41.7630534,0.233487619 41.6684692,0.210937149 41.5427175,0.191145406 C39.6889399,-0.100615992 36.7390369,0.71705502 32.6032059,3.47391306 C30.083907,2.80276341 27.3717752,2.45490141 24.6376805,2.44309039 C21.8890826,2.45493046 19.1795678,2.80064521 16.6694169,3.47006555 C12.5248125,0.714904735 9.57340241,-0.102822024 7.72200794,0.187530556 C7.59687495,0.207155055 7.50273107,0.229526414 7.43926782,0.24984008 L7.12133822,0.351604739 L6.99797391,0.662983515 C6.17239147,2.74680219 5.88045828,4.74462488 6.00542918,6.61050235 C6.07695966,7.6784879 6.27082347,8.58205199 6.52493574,9.32820627 C4.42478602,11.7735556 3.30357631,14.7444163 3.30357631,18.1528654 C3.30357631,24.1187562 5.01045951,28.3115515 8.22770357,31.0188933 C10.5600707,32.9816027 13.5246109,34.0837613 17.3314679,34.6547716 C16.7257328,35.533426 16.2796431,36.6477624 16.0480039,37.9415557 C14.8985155,38.4082909 13.6484357,38.6637391 12.4331822,38.5555683 C10.610376,38.3933186 9.06704785,37.4257293 7.8831947,35.3990494 C7.82116432,35.2858844 7.69158971,35.078564 7.50324106,34.8185489 C7.19411777,34.3918047 6.82643681,33.966005 6.39899805,33.5673504 C5.26563259,32.5103068 3.92009502,31.8289393 2.3684715,31.7214731 C2.080174,31.7182342 1.76721335,31.7381609 1.44550976,31.8024893 C0.721083229,31.9473468 0.20312467,32.2560002 0.144992083,32.9434805 C0.0877457883,33.6204793 0.611646982,34.2361653 1.70067324,34.978919 C1.81184298,35.0410124 1.85975918,35.0670243 1.93728355,35.1156103 C2.08043543,35.2053264 2.24382993,35.3235384 2.42283777,35.4732531 C2.95084827,35.9148593 3.48544567,36.5188761 3.9900076,37.3110869 C4.37077075,37.9089216 4.71817651,38.5907993 5.02378551,39.3627441 C5.08364635,39.5376043 5.19975615,39.8023316 5.38467562,40.1279134 C5.69776373,40.6791577 6.11381908,41.2276366 6.64722919,41.7383427 C8.65492029,43.6605787 11.6869125,44.5182255 15.8761986,43.787879 C15.8797228,44.2996515 15.8838369,44.8343337 15.8886303,45.4131327 C15.8929691,45.9370339 15.9063792,47.469275 15.907553,47.6082624 C15.9131264,48.2681631 15.9158218,48.6636426 15.9161036,48.9036112 C15.8968034,48.9343022 15.8611106,48.9763149 15.809269,49.0251607 C15.6783812,49.1484846 15.4778738,49.2845083 15.2295186,49.4202321 C15.0230615,49.5330589 14.7978956,49.6382894 14.5722735,49.7318285 C14.4373207,49.7877777 14.3343516,49.8265864 14.2804531,49.845377 C14.2629927,49.8573655 14.1398476,49.9123669 14.1398476,49.9123669 L14.0121189,50.0139995 L13.9099661,50.1440523 L13.8166273,50.3902591 C13.9145433,50.9341284 13.9145433,50.9341284 14.0385767,51.0410769 C14.24232,51.1771661 14.24232,51.1771661 14.2725767,51.1819809 C14.4542456,51.2321904 14.5271275,51.249507 14.6161925,51.2701142 C14.8223679,51.3178176 15.0936062,51.3782159 15.3968321,51.443533 C16.203303,51.617253 17.1072398,51.7986977 18.0253979,51.966947 C20.6325864,52.4447053 22.8759652,52.7336051 24.4452838,52.7336051 C27.8742643,52.7336051 31.2356266,52.2246588 34.4486906,51.2346765 C34.4811104,51.2170647 34.5242567,51.2010043 34.581591,51.1796626 Z"/>
    <path fill="url(#f)" d="M80.424,28.728 L80.424,36.776 C79.2933277,37.576004 78.0880064,38.1893312 76.808,38.616 C75.5279936,39.0426688 74.088008,39.256 72.488,39.256 C70.695991,39.256 69.0853405,38.9813361 67.656,38.432 C66.2266595,37.8826639 65.008005,37.104005 64,36.096 C62.991995,35.087995 62.2186694,33.8693405 61.68,32.44 C61.1413306,31.0106595 60.872,29.4213421 60.872,27.672 C60.872,25.9226579 61.1359974,24.3360071 61.664,22.912 C62.1920026,21.4879929 62.9493284,20.272005 63.936,19.264 C64.9226716,18.255995 66.1146597,17.4773361 67.512,16.928 C68.9093403,16.3786639 70.4826579,16.104 72.232,16.104 C73.0960043,16.104 73.8933297,16.1626661 74.624,16.28 C75.3546703,16.3973339 76.0346635,16.5706655 76.664,16.8 C77.2933365,17.0293345 77.8799973,17.3119983 78.424,17.648 C78.9680027,17.9840017 79.4906642,18.3706645 79.992,18.808 L79.544,19.512 C79.3946659,19.7680013 79.1706682,19.8266674 78.872,19.688 C78.7119992,19.6239997 78.4826682,19.4746678 78.184,19.24 C77.8853318,19.0053322 77.4746693,18.7600013 76.952,18.504 C76.4293307,18.2479987 75.7813372,18.0186677 75.008,17.816 C74.2346628,17.6133323 73.2933389,17.512 72.184,17.512 C70.7119926,17.512 69.3813393,17.7466643 68.192,18.216 C67.0026607,18.6853357 65.9893375,19.357329 65.152,20.232 C64.3146625,21.106671 63.6693356,22.173327 63.216,23.432 C62.7626644,24.690673 62.536,26.1039922 62.536,27.672 C62.536,29.2613413 62.7626644,30.6906603 63.216,31.96 C63.6693356,33.2293397 64.325329,34.3066622 65.184,35.192 C66.042671,36.0773378 67.0853272,36.7546643 68.312,37.224 C69.5386728,37.6933357 70.9199923,37.928 72.456,37.928 C73.1280034,37.928 73.7493305,37.8853338 74.32,37.8 C74.8906695,37.7146662 75.4346641,37.5946674 75.952,37.44 C76.4693359,37.2853326 76.9706642,37.0933345 77.456,36.864 C77.9413358,36.6346655 78.4346642,36.3760014 78.936,36.088 L78.936,29.992 L74.6,29.992 C74.4826661,29.992 74.3840004,29.954667 74.304,29.88 C74.2239996,29.805333 74.184,29.7200005 74.184,29.624 L74.184,28.728 L80.424,28.728 Z M87.512,39 L85.864,39 L85.864,16.36 L87.512,16.36 L87.512,39 Z M108.92,17.752 L100.968,17.752 L100.968,39 L99.32,39 L99.32,17.752 L91.32,17.752 L91.32,16.36 L108.92,16.36 L108.92,17.752 Z M122.712,30.776 L118.104,19.336 C117.943999,18.9626648 117.789334,18.5146693 117.64,17.992 C117.576,18.2480013 117.506667,18.4906655 117.432,18.72 C117.357333,18.9493345 117.277334,19.159999 117.192,19.352 L112.584,30.776 L122.712,30.776 Z M127.72,39 L126.456,39 C126.306666,39 126.184,38.9600004 126.088,38.88 C125.992,38.7999996 125.917334,38.6960006 125.864,38.568 L123.208,31.992 L112.088,31.992 L109.432,38.568 C109.389333,38.6853339 109.314667,38.7866662 109.208,38.872 C109.101333,38.9573338 108.973334,39 108.824,39 L107.576,39 L116.84,16.36 L118.456,16.36 L127.72,39 Z M143.96,17.752 L136.008,17.752 L136.008,39 L134.36,39 L134.36,17.752 L126.36,17.752 L126.36,16.36 L143.96,16.36 L143.96,17.752 Z M166.552,27.672 C166.552,29.4213421 166.290669,31.0079929 165.768,32.432 C165.245331,33.8560071 164.509338,35.071995 163.56,36.08 C162.610662,37.088005 161.472007,37.8666639 160.144,38.416 C158.815993,38.9653361 157.352008,39.24 155.752,39.24 C154.151992,39.24 152.690673,38.9653361 151.368,38.416 C150.045327,37.8666639 148.909338,37.088005 147.96,36.08 C147.010662,35.071995 146.274669,33.8560071 145.752,32.432 C145.229331,31.0079929 144.968,29.4213421 144.968,27.672 C144.968,25.9333246 145.229331,24.3520071 145.752,22.928 C146.274669,21.5039929 147.010662,20.288005 147.96,19.28 C148.909338,18.271995 150.045327,17.4906694 151.368,16.936 C152.690673,16.3813306 154.151992,16.104 155.752,16.104 C157.352008,16.104 158.815993,16.3786639 160.144,16.928 C161.472007,17.4773361 162.610662,18.2586616 163.56,19.272 C164.509338,20.2853384 165.245331,21.5039929 165.768,22.928 C166.290669,24.3520071 166.552,25.9333246 166.552,27.672 Z M164.856,27.672 C164.856,26.0933254 164.637336,24.674673 164.2,23.416 C163.762664,22.157327 163.144004,21.090671 162.344,20.216 C161.543996,19.341329 160.584006,18.6720023 159.464,18.208 C158.343994,17.7439977 157.106673,17.512 155.752,17.512 C154.407993,17.512 153.176006,17.7439977 152.056,18.208 C150.935994,18.6720023 149.973337,19.341329 149.168,20.216 C148.362663,21.090671 147.738669,22.157327 147.296,23.416 C146.853331,24.674673 146.632,26.0933254 146.632,27.672 C146.632,29.2613413 146.853331,30.6826604 147.296,31.936 C147.738669,33.1893396 148.362663,34.253329 149.168,35.128 C149.973337,36.002671 150.935994,36.669331 152.056,37.128 C153.176006,37.586669 154.407993,37.816 155.752,37.816 C157.106673,37.816 158.343994,37.586669 159.464,37.128 C160.584006,36.669331 161.543996,36.002671 162.344,35.128 C163.144004,34.253329 163.762664,33.1893396 164.2,31.936 C164.637336,30.6826604 164.856,29.2613413 164.856,27.672 Z M194.136,16.36 L194.136,39 L192.712,39 L192.712,19.704 C192.712,19.4266653 192.728,19.1333349 192.76,18.824 L183.848,34.648 C183.698666,34.9253347 183.485335,35.064 183.208,35.064 L182.952,35.064 C182.674665,35.064 182.461334,34.9253347 182.312,34.648 L173.16,18.792 C173.192,19.1120016 173.208,19.4159986 173.208,19.704 L173.208,39 L171.768,39 L171.768,16.36 L172.904,16.36 C173.053334,16.36 173.170666,16.3759998 173.256,16.408 C173.341334,16.4400002 173.426666,16.5253326 173.512,16.664 L182.648,32.408 C182.808001,32.7066682 182.946666,33.026665 183.064,33.368 C183.128,33.1973325 183.197333,33.0293342 183.272,32.864 C183.346667,32.6986658 183.426666,32.5413341 183.512,32.392 L192.392,16.664 C192.477334,16.5253326 192.565333,16.4400002 192.656,16.408 C192.746667,16.3759998 192.866666,16.36 193.016,16.36 L194.136,16.36 Z"/>
  </g>
</svg>
