<svg xmlns="http://www.w3.org/2000/svg" width="20" height="20" viewBox="0 0 20 20">
  <path fill="#98C379" fill-rule="evenodd" d="M388.994324,18.9886475 C384.579181,18.9886475 381,15.4094668 381,10.9943237 C381,6.57918065 384.579181,3 388.994324,3 C393.409467,3 396.988647,6.57918065 396.988647,10.9943237 C396.988647,12.7952437 396.393146,14.4570768 395.388313,15.7936532 L400.636085,20.8613675 C401.107971,21.3170627 401.124293,22.0657058 400.665445,22.5408567 C400.209774,23.0127178 399.460155,23.0280586 398.985954,22.5701277 L393.69535,17.4610509 C392.375989,18.4218197 390.751351,18.9886475 388.994324,18.9886475 Z M388.923107,16.6672995 C385.807278,16.6672995 383.281399,14.1414206 383.281399,11.0255911 C383.281399,7.90976153 385.807278,5.38388262 388.923107,5.38388262 C392.038937,5.38388262 394.564816,7.90976153 394.564816,11.0255911 C394.564816,12.296526 394.144562,13.4693054 393.435437,14.4125465 L392.240689,15.5892528 C391.309597,16.2672811 390.163067,16.6672995 388.923107,16.6672995 Z" transform="translate(-381 -3)"/>
</svg>
